<svg xmlns="http://www.w3.org/2000/svg" viewBox="0 0 22 17">
    <path fill="#aaaaaa"
          d="M13,20 L13,16 L17.001,16 L17.001,20 L13,20 Z M7,20 L7,16 L11,16 L11,20 L7,20 Z M1,20 L1,16 L5,16 L5,20 L1,20 Z M13,14 L13,10 L17,10 L17,14 L13,14 Z M7,14 L7,10 L11,10 L11,14 L7,14 Z M1,14 L1,10 L5,10 L5,14 L1,14 Z M19,8 L19,3.999 L23,3.999 L23,8 L19,8 Z M19,14 L19,10 L23,10 L23,14 L19,14 Z M13,8 L13,3.999 L17.001,3.999 L17.001,8 L13,8 Z M7,8 L7,3.999 L11,3.999 L11,8 L7,8 Z" transform="translate(-1 -3)" />
</svg>